<?xml version="1.0" encoding="utf-8"?>
<!-- Generator: Adobe Illustrator 23.0.1, SVG Export Plug-In . SVG Version: 6.00 Build 0)  -->
<svg version="1.1" id="Layer_1" xmlns="http://www.w3.org/2000/svg" xmlns:xlink="http://www.w3.org/1999/xlink" x="0px" y="0px"
	 viewBox="0 0 2400 500" style="enable-background:new 0 0 2400 500;" xml:space="preserve">
<style type="text/css">
	.st0{fill:#FFFFFF;}
</style>
<path class="st0" d="M291.8,84c-68.8,0-124.7,55.9-124.7,124.7v207.2h207.3c68.8,0,124.7-55.9,124.7-124.7V84H291.8z M455.3,291.2
	c0,44.7-36.3,81-81,81H249.2L364,218.8L210.8,333.6V208.7c0-44.6,36.3-81,81-81h163.5V291.2z"/>
<path class="st0" d="M830.3,315.8V352H729.4c-10,0-19.3-2.3-27.9-6.7c-12.5-6.4-22.7-16.8-28.7-29.6c-4.3-8.7-6.6-18.3-6.6-28.4V149
	h35.6v141.7c1.7,12.7,11.7,22.9,24.2,24.6L830.3,315.8L830.3,315.8z"/>
<path class="st0" d="M1146.3,149.3c55.8,0,101.2,45.2,101.2,101.2c0,25-9,47.8-24,65.5c-1.7,2.1-3.8,4.1-5.8,6.1
	c-18.2,18.5-43.4,29.9-71.1,29.9h-101.2V149h101.2L1146.3,149.3L1146.3,149.3z M1211.4,250.8c0-36-29.2-65.3-65.1-65.3h-65.1V316
	h65.1C1182.2,316.1,1211.4,286.8,1211.4,250.8z"/>
<path class="st0" d="M1704.7,149v203h-36.3V222.6l-35.7,27.3l-29.6,22.9l-29.6-22.9l-35.7-27.3V352h-36.3V149l36.3,27.9l65.3,50.1
	l65.3-50.1L1704.7,149z"/>
<path class="st0" d="M1732.7,352V149h36v203H1732.7z"/>
<path class="st0" d="M1999.8,149.3V352l-36.3-27.8L1833,223.7V352h-36.3V149.8l36.3,27.8l130.6,100.5V149L1999.8,149.3z"/>
<path class="st0" d="M2230.9,149v36.2h-83.4V352h-36.3V185.2h-83.4V149H2230.9z"/>
<path class="st0" d="M891.2,274c27.6-0.1,73.4-0.3,81.4-0.3l-0.2-36.5l-81.2,0.4v-52.1h131.2V149h-168v203c0,0,156.4,0,168.1,0
	v-36.5H891.2V274L891.2,274z"/>
<path class="st0" d="M1437.1,320.5c-5.2,14.7-34.6,17.4-43.9,18.7c-14.3,2-122.7,12.8-122.7,12.8V225.3c0-42.1,34.2-76.3,76.3-76.3
	h126.8v202.9c0,0-14.6,0.1-36.5,0.1L1437.1,320.5L1437.1,320.5z M1437.1,185.5h-88c-23.2,0-42.1,18.8-42.1,42.1v85l99.2-12.6
	c17.7-2.3,30.9-17.3,30.9-35.1V185.5L1437.1,185.5z"/>
</svg>
